<svg id="Capa_1" data-name="Capa 1" xmlns="http://www.w3.org/2000/svg" viewBox="0 0 17 17"><defs><style>.cls-1{fill:#1d1d1b;}</style></defs><path class="cls-1" d="M15.84,5.41a8.25,8.25,0,0,0-1.75-2.56,8.4,8.4,0,0,0-2.55-1.71A7.74,7.74,0,0,0,8.4.5a7.4,7.4,0,0,0-3.06.64A8.21,8.21,0,0,0,2.83,2.85a8.12,8.12,0,0,0-1.7,2.56A8,8,0,0,0,.5,8.58a7.48,7.48,0,0,0,.63,3.06,8.25,8.25,0,0,0,1.7,2.51,8,8,0,0,0,2.51,1.71,7.4,7.4,0,0,0,3.06.64,7.74,7.74,0,0,0,3.14-.64,8.22,8.22,0,0,0,2.55-1.71,8.39,8.39,0,0,0,1.75-2.51,7.19,7.19,0,0,0,.66-3.06A7.69,7.69,0,0,0,15.84,5.41Zm-3.21,4.76a4.76,4.76,0,0,1-1,1.46,4.68,4.68,0,0,1-1.49,1A4.15,4.15,0,0,1,8.4,13a4,4,0,0,1-1.64-.34,4.47,4.47,0,0,1-1.42-1,4.64,4.64,0,0,1-1-1.45A4,4,0,0,1,4,8.58,4.58,4.58,0,0,1,5.34,5.34a4.47,4.47,0,0,1,1.42-1A4,4,0,0,1,8.4,4a4.15,4.15,0,0,1,1.73.35,4.68,4.68,0,0,1,1.49,1,4.58,4.58,0,0,1,1,1.47A4.2,4.2,0,0,1,13,8.58,3.66,3.66,0,0,1,12.63,10.17Z"/></svg>