<svg id="Capa_1" data-name="Capa 1" xmlns="http://www.w3.org/2000/svg" viewBox="0 0 528.31 173.35"><defs><style>.cls-1{fill:#fff;}</style></defs><path class="cls-1" d="M54,59.23a15,15,0,0,0-4.43,1.41q-9.84,5-16.53,16.5L31.67,66a7.27,7.27,0,0,0-1.79-4.3q-1.35-1.25-4.75-1.25h-13v80.64a12.64,12.64,0,0,0,12.64,12.64h9.48V95.14A29.23,29.23,0,0,1,42.59,84a18.72,18.72,0,0,1,11.82-3.8,24.94,24.94,0,0,1,6.17.62,15.1,15.1,0,0,0,3.67.63,3.93,3.93,0,0,0,2.42-.67,3.42,3.42,0,0,0,1.17-2.28L70.7,61.92Q64.54,57.61,54,59.23Z"/><path class="cls-1" d="M95.54,60.49H86.72v80.64a12.64,12.64,0,0,0,12.64,12.64h9.47v-80A13.29,13.29,0,0,0,95.54,60.49ZM111,28.17a14.18,14.18,0,0,0-3.09-4.47,14.68,14.68,0,0,0-4.52-3,13.8,13.8,0,0,0-5.55-1.12,13.24,13.24,0,0,0-5.41,1.12,14.27,14.27,0,0,0-4.43,3,14.18,14.18,0,0,0-4.12,10A13,13,0,0,0,85,39.1a14.3,14.3,0,0,0,7.43,7.38,13.24,13.24,0,0,0,5.41,1.12,13.8,13.8,0,0,0,5.55-1.12A14.64,14.64,0,0,0,111,39.1a12.54,12.54,0,0,0,1.17-5.38A13.38,13.38,0,0,0,111,28.17Z"/><path class="cls-1" d="M181.44,134.88a7.66,7.66,0,0,0-1.35-1.47,2.52,2.52,0,0,0-1.61-.5,3.06,3.06,0,0,0-1.61.5c-.54.33-1.15.67-1.83,1a21.2,21.2,0,0,1-2.42,1,10.68,10.68,0,0,1-3.45.49,7.29,7.29,0,0,1-5.73-2.42,9.76,9.76,0,0,1-2.15-6.71V77.05h24.17V73.44A12.13,12.13,0,0,0,173.32,61.3h-12V32.38H149.83a5.21,5.21,0,0,0-3.26,1,4.4,4.4,0,0,0-1.66,2.77l-4.65,25.07-14.77,2.41V72.4a4.22,4.22,0,0,0,4.38,4.65h9.31v51.3q0,11.91,6.45,18.66T164,153.77a41.14,41.14,0,0,0,13-2.06,33.46,33.46,0,0,0,11.1-6.08Z"/><path class="cls-1" d="M330,79.11a30,30,0,0,0-6.13-10.92,26,26,0,0,0-9.93-6.8,36.73,36.73,0,0,0-13.52-2.33,39.67,39.67,0,0,0-8.73,1,32.62,32.62,0,0,0-8.19,3.05,29.43,29.43,0,0,0-7.07,5.32,27.91,27.91,0,0,0-5.37,7.84,28.4,28.4,0,0,0-8.38-12.49q-5.6-4.69-14.27-4.7a28.59,28.59,0,0,0-7.57.94,30.66,30.66,0,0,0-6.44,2.55,32.33,32.33,0,0,0-5.64,3.85,52,52,0,0,0-5.06,4.92l-1.43-6.8a5.44,5.44,0,0,0-5.64-4H203.1v80.64a12.64,12.64,0,0,0,12.64,12.64h9.47V85.11A30.19,30.19,0,0,1,233,78.62a17.75,17.75,0,0,1,8.91-2.37q7.26,0,11,4.2t3.71,13.43v48.79a11.1,11.1,0,0,0,22.2,0V93.88A21.34,21.34,0,0,1,280,86.27a14.76,14.76,0,0,1,8.55-8.86,16.94,16.94,0,0,1,6.31-1.16q7.42,0,11.28,4.43T310,93.88v47.25a12.64,12.64,0,0,0,12.64,12.64h9.47V93.88A47.35,47.35,0,0,0,330,79.11Z"/><path class="cls-1" d="M514.23,113.76a21.81,21.81,0,0,0-5.1-6.76,29.06,29.06,0,0,0-7.21-4.66c-2.69-1.22-5.43-2.31-8.24-3.27s-5.55-1.83-8.23-2.64a48.59,48.59,0,0,1-7.21-2.73,17.19,17.19,0,0,1-5.1-3.53,6.91,6.91,0,0,1-1.93-5A8.63,8.63,0,0,1,475,78q3.76-2.78,10.3-2.78a26.22,26.22,0,0,1,7.29.9,40.09,40.09,0,0,1,5.51,2q2.42,1.13,4.25,2a8,8,0,0,0,3.45.89,4.82,4.82,0,0,0,2.5-.58,5.85,5.85,0,0,0,1.88-2l5-8a39.08,39.08,0,0,0-13-8.24,45.87,45.87,0,0,0-17.28-3.13,45.11,45.11,0,0,0-15,2.28,32.65,32.65,0,0,0-10.84,6.09,25.29,25.29,0,0,0-6.58,8.91,26.47,26.47,0,0,0-2.23,10.74,25.32,25.32,0,0,0,1.92,10.38,21.85,21.85,0,0,0,5.1,7.25,28.4,28.4,0,0,0,7.25,4.88,74.73,74.73,0,0,0,8.33,3.36c2.83,1,5.61,1.84,8.32,2.64a50.3,50.3,0,0,1,7.26,2.73,17.17,17.17,0,0,1,5.1,3.58,7.46,7.46,0,0,1,1.92,5.28,10.58,10.58,0,0,1-.85,4.17,9.26,9.26,0,0,1-2.68,3.53,14.37,14.37,0,0,1-4.66,2.47,21.67,21.67,0,0,1-6.76.94,24.9,24.9,0,0,1-8.28-1.17,37.76,37.76,0,0,1-5.68-2.5q-2.42-1.35-4.25-2.51a7.16,7.16,0,0,0-3.9-1.17,6.51,6.51,0,0,0-3.4.81,7.19,7.19,0,0,0-2.33,2.33l-5.1,8.41A37.17,37.17,0,0,0,453.8,147a48.21,48.21,0,0,0,7.7,3.58,54.64,54.64,0,0,0,8.68,2.37,53.6,53.6,0,0,0,25-1.43,33,33,0,0,0,11.5-6.36,26.83,26.83,0,0,0,7.08-9.66,30.53,30.53,0,0,0,2.41-12.22A21.47,21.47,0,0,0,514.23,113.76Z"/><path class="cls-1" d="M434.06,49.14a49.81,49.81,0,0,0-10.52-15.4,50.38,50.38,0,0,0-15.4-10.31,47,47,0,0,0-18.91-3.85,45.13,45.13,0,0,0-18.45,3.85,47.94,47.94,0,0,0-25.32,25.71,48.17,48.17,0,0,0-3.81,19.09,45.22,45.22,0,0,0,3.81,18.48,49.8,49.8,0,0,0,10.22,15.08,48.74,48.74,0,0,0,15.1,10.32A45,45,0,0,0,389.23,116a46.82,46.82,0,0,0,18.91-3.85,50,50,0,0,0,25.92-25.4,43.77,43.77,0,0,0,4-18.48A46.6,46.6,0,0,0,434.06,49.14ZM414.74,77.82a29.46,29.46,0,0,1-6.13,8.83,29.06,29.06,0,0,1-9,6,25.59,25.59,0,0,1-10.42,2.08,23.8,23.8,0,0,1-9.85-2,27.52,27.52,0,0,1-8.59-5.83,28.35,28.35,0,0,1-5.88-8.74,23.84,23.84,0,0,1-2-9.86A26.93,26.93,0,0,1,365,57.49a26.74,26.74,0,0,1,14.36-14.61,23.8,23.8,0,0,1,9.85-2,25.62,25.62,0,0,1,10.42,2.08,29.06,29.06,0,0,1,9,6,28.29,28.29,0,0,1,6,8.86,25.39,25.39,0,0,1,2.14,10.48A22.43,22.43,0,0,1,414.74,77.82Z"/></svg>